<mxfile host="65bd71144e">
    <diagram id="2ef6rozH_wLAt9tcfno5" name="ページ1">
        <mxGraphModel dx="1929" dy="2461" grid="1" gridSize="10" guides="1" tooltips="1" connect="1" arrows="1" fold="1" page="1" pageScale="1" pageWidth="1600" pageHeight="900" math="0" shadow="0">
            <root>
                <mxCell id="0"/>
                <mxCell id="1" parent="0"/>
                <mxCell id="2" value="&lt;font style=&quot;&quot; face=&quot;Noto Serif CJK JP&quot;&gt;&lt;b style=&quot;&quot;&gt;&lt;font style=&quot;font-size: 80px;&quot;&gt;Nostr&lt;/font&gt;&lt;font style=&quot;font-size: 60px;&quot;&gt;の&lt;/font&gt;&lt;font style=&quot;font-size: 72px;&quot;&gt;リレー&lt;/font&gt;&lt;font style=&quot;font-size: 60px;&quot;&gt;から&lt;/font&gt;&lt;br&gt;&lt;font style=&quot;font-size: 76px;&quot;&gt;漏れなくすべて&lt;/font&gt;&lt;font style=&quot;font-size: 60px;&quot;&gt;の&lt;/font&gt;&lt;font style=&quot;font-size: 76px;&quot;&gt;イベント&lt;/font&gt;&lt;font style=&quot;font-size: 60px;&quot;&gt;を&lt;/font&gt;&lt;br&gt;&lt;font style=&quot;font-size: 64px;&quot;&gt;取ってくる&lt;/font&gt;&lt;font style=&quot;font-size: 80px;&quot;&gt;技術&lt;/font&gt;&lt;br&gt;&lt;/b&gt;&lt;/font&gt;" style="text;html=1;align=center;verticalAlign=middle;resizable=0;points=[];autosize=1;strokeColor=none;fillColor=none;" parent="1" vertex="1">
                    <mxGeometry x="310" y="300" width="980" height="300" as="geometry"/>
                </mxCell>
                <mxCell id="3" value="" style="whiteSpace=wrap;html=1;fontSize=80;labelBackgroundColor=#653A7B;fontColor=none;noLabel=1;fillColor=#653A7B;" parent="1" vertex="1">
                    <mxGeometry y="860" width="1600" height="40" as="geometry"/>
                </mxCell>
                <mxCell id="4" value="" style="whiteSpace=wrap;html=1;fontSize=80;labelBackgroundColor=#653A7B;fontColor=none;noLabel=1;fillColor=#653A7B;" parent="1" vertex="1">
                    <mxGeometry width="1600" height="40" as="geometry"/>
                </mxCell>
                <mxCell id="11" value="" style="group" parent="1" vertex="1" connectable="0">
                    <mxGeometry x="662" y="668" width="282" height="90" as="geometry"/>
                </mxCell>
                <mxCell id="6" value="&lt;font style=&quot;&quot; face=&quot;Noto Serif CJK JP&quot;&gt;&lt;b style=&quot;&quot;&gt;&lt;span style=&quot;font-size: 32px;&quot;&gt;かすてらふぃ &lt;br&gt;&lt;div style=&quot;&quot;&gt;&lt;b style=&quot;background-color: initial; font-size: 12px;&quot;&gt;&lt;font style=&quot;font-size: 24px;&quot;&gt;@jiftechnify&lt;/font&gt;&lt;/b&gt;&lt;/div&gt;&lt;/span&gt;&lt;/b&gt;&lt;/font&gt;" style="text;html=1;align=left;verticalAlign=middle;resizable=1;points=[];autosize=1;strokeColor=none;fillColor=none;movable=1;rotatable=1;deletable=1;editable=1;connectable=1;" parent="11" vertex="1">
                    <mxGeometry x="85" width="197" height="90" as="geometry"/>
                </mxCell>
                <mxCell id="8" value="" style="shape=image;imageAspect=0;aspect=fixed;verticalLabelPosition=bottom;verticalAlign=top;labelBackgroundColor=#653A7B;fontSize=24;fontColor=none;fillColor=#653A7B;image=data:image/png,iVBORw0KGgoAAAANSUhEUgAAAIAAAACACAIAAABMXPacAAAH+UlEQVR4nOydOYgVzxbG/1fbZdx3x30XlAFRUQdXXCYQXEDFQMHARDE0Mzc2MVAzTSYYVEQwEETct0ADwRVxxNFRx33ffdH75vfe68OtnjvjmQfnF33d1u3p7mOdqjpVdTpbtGjRP/+mublZurq6Wnrp0qXSy5Ytk66vr5e+ePGi9Lt376Srqqpyr/nr1y/pDx8+SA8dOlT64MGD/+SxYcMG6ZaWFumzZ8/mll+wYIH0jx8/pKdNmyY9YsSI3GvyWXhvNTU10vfv35e+e/eudI8ePaT79esnzWfvknvHwV8jDOBMGMCZ0pIlS3RAf93Y2Cjds2dP6bFjx0rv3bs396IrVqyQ/v37t/Tp06elN2/eLE3/uG/fPunp06fnXv/WrVu551PKr169Wvr169fSo0aNkp46dar07t27c6+5bds26QMHDuSWIStXrpQePny4dNQAZ8IAzoQBnMmampp0MGjQIOmTJ0+W/fH27dtzz586dSr3PNsb9tnXr1+ffMOVwjbp69ev0nwPDQ0N0tYz0u/zuSz4vLW1tdJRA5wJAzgTBnAm+/nzpw4OHz4sTb/GmElRLL9Pjhw50ubrF+XEiRNly1h+v2gZwvdw5coV6agBzoQBnAkDOJOdO3dOB1Z/9vbt27nnrbYhpV88bty4smUePXpU6LdFy6f8lvA9WM9utXPWO4ka4EwYwJkwgDOZ9Q/0ZSk+ndA/Wu1HCim+u5LylZDyXOvWrZPm+9y1a5d01ABnwgDOhAGcyRYvXqwDjglSSOkXE7Yl7Hf/Td9NeA8psa+ibduUKVOkt27dKv3y5UvpqAHOhAGcCQM4k/Xu3VsHdXV10ly/WMmY4P+Rom2bxYMHD6S7dGn9v/727dvW822+etAuhAGcCQM4k/Xq1UsHKXOzVrybFJ0vTYHrNe/du9fm83+Tp0+fSnPuPctaQ3BRA5wJAzgTBnAm49p8Mn/+/DZf9NKlS7nnOYZIiQt1hN+34j+kkr4/6d+/vzT3wXFMEDXAmTCAM2EAZ7Lnz5/rgPu26MeLtgdWeV4zJaZUid/viHGANQfAsdGWLVukua94yJAh0p8/f5aOGuBMGMCZMIAzJe77/fPnjzR91rFjx6QrGR8Qa6zQ0fPD1hpQa044xe9v3LhR+tOnT9LMFfH9+3fpb9++SUcNcCYM4EwYwJnShAkTdMA9tMyrw/j1+fPnpdkeWD7dwmstkEXK/gDCdZ+TJ0+WZpzn5s2b0tyTTB01wJkwgDNhAGdKo0eP1kHXrl2l2R5wjdDly5fLXrS9/HtRv2zxN+9nx44d0mwPnj17Js08RVEDnAkDOBMGcOY/1gWx7882gH6/aB43ixR/av2toqT8raLtRMp7WLt2rTRzMQ0YMEA6aoAzYQBnwgDOZMwJ2q1bN2nGryuhaF8+xe9ba1it3HO8ptVWVZJnwoJzAxxLcbwVNcCZMIAzYQBnMvop9v3PnDlT9scp/tSaMyjax0/Zu8AyKe0B4bNY61at8tY1uSeAmmtGowY4EwZwJgzgTMa+P/NFW+t/6PtS5oQtv1+0L99e+aWtv2uNFVLyXbP8zp07pTkfwPWgw4YNay3TpqcI2o0wgDNhAGdKVp89hZR+fUp/ubORcs8sw++aDRw4UJpzv8wRRKIGOBMGcCYM4IyZN9SiknhOCh3RZnTENa1xw/Lly6W5Bzv2iHVSwgDOhAGcySpZ4x/8L1++fJFm3J9zy7FHrBMRBnAmDOBMxnlgxr4Z02Ac48KFC9LMO91euTY7G0WfkfstXrx4kVtm0qRJ0lEDnAkDOBMGcCZjjvvHjx9Lv3//XprtQVGK5hC1YjXMvdPS0iKd8v2DlPgP4zmV5D3lmtqRI0dKv3nzRpr7h6MGOBMGcCYM4ExGXz9jxgzphw8fSjN2YWHl2OF5y18X/Y4N2wPC65D9+/eXvaZF0fEN5wBevXolzXuOXBGdiDCAM2EAZzLuXbpz5470+PHjpbmXeNOmTdL19fXSRfvOlr+22gP2/elPLR9Nvz937tyy93Pt2rXke//v6xPGzaqqqqSfPHkizT3DUQOcCQM4EwZwJmOflD6L38Dq27evNPOMplDJPEHK+CDlmzZFKfoN5FWrVkmXSqXcMt27d5dubm6WjhrgTBjAmTCAMxlj1owLMabx8eNH6ZRc/FZcyPKtKW0D2wP2wdesWVP2t9XV1dLM3ca+vzWOSbk35lniWqDBgwdLMy7EdiJqgDNhAGfCAM6U2IcdM2aMNL8lcOPGDWnuK6bva2hokE6JC6X0ta3YTorftzh+/Lh0yndsrHuoqamRZqyMmuMqnuc7jBrgTBjAmTCAM6VZs2bpgN88mTdvnjT93aFDh6SZA4frYY4ePSpddJ6AbQPjPB3h91P6+Jbf5zw5c8DxG/19+vSRpt+PNqATEQZwJgzgTKmurk4HnLdk/JrfZaTm+IDxDbYle/bsKXsTbCc6or9vtUMp64VmzpyZe57jJLZ/nGO3xgEkaoAzYQBnwgDOlBYuXJj7D/wGOvu8zH1fW1srzfajqalJmuuLrl69Ks3vGHNtflG/T19flNmzZ0uzb868Dox3cY0/fT3bP46N+N7YLjJfd9QAZ8IAzoQBnCkxVwT9O30c1w5xTQvHChMnTswtw7xpLMPzjY2N0tevXy/0AHPmzGl9GPhi3jP9L+M27L9zvzTL8J0wzsM5Xvp6zqXz73IuOmJBnYgwgDNhAGf+FQAA///NBDpxNaAI6QAAAABJRU5ErkJggg==;" parent="11" vertex="1">
                    <mxGeometry y="9.5" width="75" height="75" as="geometry"/>
                </mxCell>
                <mxCell id="12" value="&lt;font face=&quot;Noto Serif CJK JP&quot; style=&quot;font-size: 32px;&quot;&gt;Nostr勉強会 #1&lt;/font&gt;" style="text;html=1;align=center;verticalAlign=middle;resizable=0;points=[];autosize=1;strokeColor=none;fillColor=none;fontStyle=1;fontSize=32;" vertex="1" parent="1">
                    <mxGeometry x="678" y="210" width="250" height="50" as="geometry"/>
                </mxCell>
            </root>
        </mxGraphModel>
    </diagram>
</mxfile>
